<svg width="17" height="20" viewBox="0 0 17 20" fill="none" xmlns="http://www.w3.org/2000/svg">
<path fill-rule="evenodd" clip-rule="evenodd" d="M0.451324 6.08332C0.451324 3.19713 2.79104 0.857422 5.67722 0.857422H11.7741C14.6603 0.857422 17 3.19714 17 6.08332V11.4941C17 14.3803 14.6603 16.72 11.7741 16.72H10.8415L9.06969 19.0014C8.89534 19.2259 8.55614 19.2259 8.38179 19.0014L6.61002 16.72H5.67722C2.79104 16.72 0.451324 14.3803 0.451324 11.4941V6.08332ZM14.2476 9.11518C14.1616 8.68829 13.688 8.50487 13.2886 8.6783C12.8891 8.85173 12.7224 9.32126 12.7421 9.75628C12.7536 10.011 12.7201 10.2679 12.6409 10.5147C12.4806 11.0145 12.144 11.439 11.6939 11.7091C11.2438 11.9791 10.7109 12.0763 10.1945 11.9826C9.93944 11.9363 9.69703 11.845 9.47766 11.7149C9.10307 11.4929 8.61034 11.419 8.26934 11.6898C7.92834 11.9607 7.86732 12.4648 8.20352 12.7416C8.69301 13.1446 9.28048 13.4194 9.91278 13.5342C10.8057 13.6963 11.7271 13.5282 12.5053 13.0613C13.2835 12.5944 13.8654 11.8605 14.1425 10.9963C14.3388 10.3844 14.3728 9.73671 14.2476 9.11518Z" fill="white"/>
</svg>
