<svg width="57" height="56" viewBox="0 0 57 56" fill="none" xmlns="http://www.w3.org/2000/svg">
<path d="M29.161 0C19.5128 0 10.9952 4.99084 6.13362 12.529C5.58513 13.3683 5.85718 14.6305 6.70322 15.1715C7.54933 15.7127 8.81462 15.4336 9.35234 14.5873C13.5362 8.10005 20.8322 3.80032 29.161 3.80032C35.0253 3.80032 40.361 5.91463 44.4796 9.44117C45.2179 10.1825 46.594 10.1344 47.2784 9.34345C47.9629 8.55257 47.8077 7.18955 46.963 6.57132C42.1807 2.47619 35.9543 0 29.161 0ZM29.161 7.22438C28.1529 7.20975 27.2253 8.12013 27.2253 9.1245C27.2253 10.1288 28.1529 11.0394 29.161 11.0246C38.1622 11.0246 45.4134 18.2677 45.4134 27.235C45.407 27.3009 45.407 27.3671 45.4134 27.4329C45.3968 31.8094 44.8334 36.0428 43.804 40.1003C43.5643 41.0677 44.2267 42.1653 45.1968 42.4082C46.1668 42.6511 47.2715 41.9958 47.5193 41.0305C48.6299 36.6536 49.2168 32.0868 49.2281 27.3736C49.2281 27.3278 49.2281 27.2812 49.2281 27.235C49.2281 27.1745 49.2286 27.1175 49.2281 27.0568C49.2282 27.0505 49.2282 27.0435 49.2281 27.0371C49.1187 16.1085 40.1562 7.22446 29.161 7.22446V7.22438ZM22.3263 8.55059C22.2332 8.5504 22.1403 8.55696 22.0482 8.57032C21.8774 8.59387 21.7097 8.64061 21.5514 8.70883C14.2936 11.6685 9.16385 18.7637 9.07412 27.0172C9.06776 27.0897 9.06776 27.1624 9.07412 27.235C9.06776 27.3009 9.06776 27.367 9.07412 27.4329C9.02067 31.9549 7.12412 36.0055 4.08726 38.9127C3.29696 39.5831 3.23014 40.9338 3.95044 41.6783C4.67068 42.4228 6.02804 42.4061 6.7297 41.644C10.4975 38.0371 12.851 32.9732 12.8889 27.3734C12.8889 27.327 12.8889 27.281 12.8889 27.2348C12.8889 27.1757 12.8889 27.116 12.8889 27.0566C12.9627 20.3432 17.1323 14.6253 23.0018 12.2317C23.8336 11.9237 24.3731 10.9786 24.2135 10.1089C24.0539 9.23926 23.2137 8.54537 22.3263 8.5504V8.55059ZM50.44 11.4403C49.7487 11.4339 49.07 11.8387 48.7448 12.4463C48.4194 13.054 48.4619 13.8398 48.8506 14.4093C51.2515 18.0621 52.6614 22.422 52.6851 27.1162C52.6853 27.157 52.6851 27.1946 52.6851 27.235C52.6787 27.3009 52.6787 27.3671 52.6851 27.4329C52.6717 31.42 52.2541 35.3077 51.493 39.0711C51.291 40.0521 52.006 41.1276 52.9916 41.325C53.9772 41.5224 55.0539 40.8059 55.2482 39.8233C56.0612 35.8021 56.4896 31.6473 56.4998 27.3934C56.4999 27.387 56.4998 27.38 56.4998 27.3736C56.4998 27.3278 56.4998 27.2812 56.4998 27.235C56.4998 27.1745 56.5003 27.1173 56.4998 27.0568C56.4999 27.0505 56.4999 27.0435 56.4998 27.0371C56.4604 21.6219 54.8285 16.5593 52.0493 12.3311C51.7091 11.7906 51.0804 11.4427 50.44 11.4404V11.4403ZM29.161 14.4686C22.1777 14.4686 16.4536 20.1045 16.3459 27.037C16.3396 27.103 16.3396 27.1691 16.3459 27.235C16.3396 27.3009 16.3396 27.3671 16.3459 27.4329C16.3281 29.6481 16.0048 31.7822 15.4121 33.8062C15.0706 34.7762 15.685 35.9691 16.675 36.2586C17.665 36.548 18.829 35.875 19.0679 34.8751C19.7657 32.4921 20.1476 29.9729 20.1607 27.3736C20.1607 27.3278 20.1607 27.2812 20.1607 27.235C20.1607 27.1758 20.1607 27.1162 20.1607 27.0568C20.257 22.1718 24.2335 18.2689 29.161 18.2689C32.3468 18.2689 35.1099 19.9144 36.711 22.3857C37.2554 23.2288 38.5224 23.5005 39.3669 22.9552C40.2114 22.41 40.4799 21.147 39.9297 20.3075C37.6502 16.7892 33.6635 14.4686 29.161 14.4686ZM4.74284 18.0314C3.93466 18.0517 3.17351 18.6414 2.95472 19.4167C2.22322 21.8523 1.8353 24.4323 1.82219 27.0964C1.82212 27.1028 1.82212 27.1098 1.82219 27.1161C1.82206 27.1562 1.82219 27.1951 1.82219 27.235C1.81582 27.3009 1.81582 27.367 1.82219 27.4329C1.79101 28.8847 1.4104 30.2318 0.769132 31.431C0.208878 32.3119 0.559832 33.6352 1.48377 34.1254C2.40764 34.6156 3.70595 34.1674 4.12691 33.2124C5.06179 31.4639 5.61383 29.48 5.63687 27.3735C5.63687 27.3271 5.63687 27.2812 5.63687 27.235C5.63687 27.1758 5.63687 27.1161 5.63687 27.0568C5.65341 24.7782 5.98719 22.5806 6.61051 20.5053C6.97635 19.3559 5.95289 18.0001 4.74284 18.0313V18.0314ZM29.161 21.7128C26.1238 21.7128 23.6177 24.2093 23.6177 27.235C23.6043 28.2382 24.518 29.1603 25.5251 29.1603C26.5323 29.1603 27.4458 28.2382 27.4325 27.235C27.4325 26.2631 28.1855 25.513 29.161 25.513C30.1366 25.513 30.8896 26.2631 30.8896 27.235C30.8832 27.3009 30.8832 27.3671 30.8896 27.4329C30.866 32.0538 30.0044 36.4712 28.4657 40.5555C28.1213 41.4874 28.6565 42.6471 29.5906 42.9935C30.5247 43.3399 31.6909 42.8109 32.042 41.8817C33.7449 37.3618 34.6874 32.4754 34.7043 27.3736C34.7043 27.3278 34.7043 27.2812 34.7043 27.235C34.7043 27.1745 34.7043 27.1171 34.7043 27.0568C34.7044 27.0435 34.7044 27.0301 34.7043 27.0168C34.5856 24.0917 32.1237 21.7123 29.161 21.7123V21.7128ZM40.029 25.2953C39.0236 25.3055 38.1206 26.2335 38.1415 27.235C38.1415 36.8491 35.129 45.7254 29.9955 53.0448C29.4191 53.8633 29.6406 55.1372 30.4684 55.7028C31.2429 56.2319 32.5642 56.0447 33.1347 55.2221C38.699 47.2882 41.9562 37.6401 41.9562 27.235C41.9772 26.2204 41.0476 25.2847 40.029 25.2953ZM25.0085 30.5008C24.1363 30.5459 23.3466 31.2629 23.2204 32.1239C22.1441 38.8049 18.9108 44.7608 14.2399 49.2644C13.4503 49.935 13.3839 51.285 14.1039 52.0293C14.8239 52.7735 16.1806 52.7572 16.8824 51.9962C22.1282 46.9382 25.7855 40.2489 26.9953 32.7377C27.2008 31.6109 26.1564 30.4351 25.0085 30.5011V30.5008ZM14.5181 38.3387C13.9003 38.3858 13.3161 38.7533 13.0081 39.2888C11.7714 41.3381 10.2245 43.172 8.43833 44.7517C7.67425 45.4053 7.58433 46.6978 8.25048 47.4502C8.91669 48.2027 10.2151 48.2753 10.9616 47.6019C13.0356 45.7677 14.8291 43.6299 16.2665 41.2483C16.6406 40.6578 16.65 39.8573 16.29 39.2582C15.93 38.6591 15.2173 38.2892 14.5182 38.3387H14.5181ZM43.9232 43.9006C43.1844 43.9515 42.4994 44.4712 42.2543 45.1673C41.598 46.9613 40.8506 48.7159 40.0092 50.4124C39.5174 51.3084 39.9189 52.5752 40.8379 53.0276C41.7568 53.48 43.0107 53.0281 43.4265 52.0948C44.3293 50.2748 45.1263 48.3988 45.8306 46.4736C46.0571 45.8816 45.9604 45.1776 45.5826 44.6679C45.2048 44.1582 44.5578 43.8591 43.9232 43.9006ZM27.0152 45.7215C26.3975 45.7686 25.8132 46.1361 25.5052 46.6716C24.2974 48.682 22.9018 50.5657 21.3528 52.3125C20.6764 53.0561 20.7491 54.35 21.5046 55.0137C22.2601 55.6775 23.5577 55.5876 24.2138 54.8262C25.9172 52.9053 27.4545 50.8231 28.7836 48.6113C29.1492 48.0184 29.1506 47.2213 28.7899 46.6273C28.4265 46.0332 27.7146 45.6693 27.0182 45.7215H27.0152Z" fill="#B57510"/>
</svg>
