<svg width="24" height="28" viewBox="0 0 24 28" fill="none" xmlns="http://www.w3.org/2000/svg">
<path d="M0.777844 11.1468C0.58505 11.0183 0.45652 10.8469 0.392256 10.6327C0.327991 10.4185 0.370834 10.2042 0.520785 9.99003C1.8275 8.10493 3.49324 6.6427 5.518 5.60332C7.54191 4.56481 9.69992 4.04555 11.992 4.04555C14.2627 4.04555 16.4049 4.53824 18.4185 5.52363C20.4321 6.50903 22.0923 7.92285 23.399 9.7651C23.6132 10.0436 23.6826 10.2899 23.6072 10.5041C23.5327 10.7184 23.4097 10.9004 23.2383 11.0504C23.0455 11.1789 22.8365 11.2325 22.6111 11.2111C22.3866 11.1896 22.1994 11.0718 22.0494 10.8576C20.9355 9.20814 19.4844 7.95498 17.6962 7.09812C15.907 6.24126 14.0057 5.80212 11.992 5.78069C9.99982 5.78069 8.12029 6.21469 6.35344 7.0827C4.58574 7.94984 3.14492 9.20814 2.031 10.8576C1.83821 11.1147 1.62399 11.2539 1.38836 11.2753C1.15272 11.2967 0.949216 11.2539 0.777844 11.1468ZM15.8479 27.0844C13.3844 26.5489 11.4513 25.4135 10.0487 23.6784C8.64512 21.9433 7.94335 19.8547 7.94335 17.4126C7.94335 16.2773 8.33965 15.3133 9.13225 14.5207C9.92485 13.7281 10.8888 13.3318 12.0242 13.3318C13.1381 13.3318 14.0965 13.7174 14.8994 14.4886C15.7031 15.2597 16.105 16.2023 16.105 17.3162C16.105 17.9588 16.335 18.5107 16.7952 18.9717C17.2562 19.4318 17.808 19.6619 18.4506 19.6619C19.1147 19.6619 19.6716 19.4318 20.1215 18.9717C20.5714 18.5107 20.7963 17.9588 20.7963 17.3162C20.7963 14.9384 19.9343 12.9299 18.2103 11.2907C16.4854 9.65243 14.4234 8.83327 12.0242 8.83327C9.60352 8.83327 7.54191 9.66314 5.83933 11.3229C4.13589 12.9835 3.28416 15.0134 3.28416 17.4126C3.28416 18.1409 3.33772 18.8693 3.44483 19.5976C3.55193 20.3259 3.74473 21.0864 4.02321 21.879C4.10889 22.1361 4.10375 22.3665 4.00778 22.5705C3.91096 22.7736 3.75544 22.9179 3.54122 23.0036C3.28416 23.1107 3.0541 23.1107 2.85102 23.0036C2.64709 22.8965 2.49157 22.7144 2.38446 22.4574C2.10598 21.7505 1.89733 20.9793 1.75852 20.1438C1.61885 19.3084 1.54902 18.398 1.54902 17.4126C1.54902 14.5207 2.56654 12.0786 4.60159 10.0864C6.63664 8.09422 9.10012 7.09812 11.992 7.09812C14.9054 7.09812 17.3851 8.08351 19.4313 10.0543C21.4766 12.0251 22.4993 14.4457 22.4993 17.3162C22.4993 18.4515 22.1081 19.4099 21.3258 20.1914C20.5444 20.9737 19.586 21.3649 18.4506 21.3649C17.3367 21.3649 16.3783 20.99 15.5754 20.2402C14.7717 19.4905 14.3698 18.5479 14.3698 17.4126C14.3698 16.77 14.1397 16.2186 13.6796 15.7584C13.2186 15.2974 12.6668 15.0669 12.0242 15.0669C11.3601 15.0669 10.8031 15.2974 10.3533 15.7584C9.90342 16.2186 9.6785 16.77 9.6785 17.4126C9.6785 19.4691 10.2569 21.1935 11.4136 22.5859C12.5704 23.9783 14.2199 24.9209 16.362 25.4136C16.5977 25.4564 16.7639 25.5798 16.8607 25.7837C16.9567 25.9868 16.9725 26.1954 16.9083 26.4097C16.8654 26.6024 16.7583 26.7738 16.5869 26.9238C16.4156 27.0737 16.1692 27.1273 15.8479 27.0844ZM4.89078 4.43114C4.65514 4.58109 4.41951 4.62907 4.18387 4.57509C3.94823 4.52196 3.76615 4.37758 3.63762 4.14194C3.53051 3.94915 3.51466 3.74008 3.59006 3.51472C3.66461 3.29022 3.80899 3.11371 4.02321 2.98518C5.24424 2.27827 6.52953 1.75858 7.87909 1.42612C9.22865 1.09451 10.6103 0.928711 12.0242 0.928711C13.4166 0.928711 14.7717 1.09451 16.0895 1.42612C17.4065 1.75858 18.6863 2.24614 19.9287 2.88878C20.1858 3.03873 20.3413 3.22082 20.3953 3.43503C20.4484 3.64925 20.4214 3.85275 20.3143 4.04555C20.2286 4.23834 20.0787 4.38829 19.8644 4.4954C19.6502 4.60251 19.4146 4.58109 19.1575 4.43114C18.0436 3.85275 16.8868 3.41361 15.6872 3.11371C14.4876 2.81381 13.2666 2.66386 12.0242 2.66386C10.7817 2.66386 9.55554 2.80824 8.34565 3.097C7.1349 3.38662 5.98328 3.83133 4.89078 4.43114ZM8.4896 26.4739C7.22573 25.1672 6.28875 23.7962 5.67867 22.361C5.06772 20.9257 4.76225 19.2763 4.76225 17.4126C4.76225 15.4204 5.46916 13.7225 6.88299 12.319C8.29681 10.9163 10.0105 10.215 12.0242 10.215C14.0164 10.215 15.7301 10.9004 17.1653 12.2714C18.6006 13.6424 19.3182 15.324 19.3182 17.3162C19.3182 17.5947 19.2432 17.8252 19.0933 18.0077C18.9433 18.1893 18.7291 18.2802 18.4506 18.2802C18.1936 18.2802 17.9849 18.1893 17.8247 18.0077C17.6636 17.8252 17.583 17.5947 17.583 17.3162C17.583 15.8167 17.0368 14.5421 15.9443 13.4925C14.8518 12.4428 13.5451 11.918 12.0242 11.918C10.4818 11.918 9.16952 12.4535 8.0873 13.5246C7.00594 14.5957 6.46526 15.8917 6.46526 17.4126C6.46526 19.0621 6.72789 20.4866 7.25315 21.6862C7.77755 22.8858 8.61813 24.0961 9.77489 25.3172C9.94627 25.4885 10.0375 25.6865 10.0487 25.911C10.0589 26.1363 9.98911 26.3347 9.83916 26.506C9.66779 26.6988 9.44843 26.7845 9.18109 26.7631C8.91289 26.7417 8.6824 26.6453 8.4896 26.4739ZM18.5791 24.4174C16.5441 24.4174 14.7931 23.7907 13.3262 22.5371C11.8584 21.2843 11.1245 19.5548 11.1245 17.3483C11.1245 17.1127 11.2046 16.9041 11.3648 16.7224C11.5259 16.5399 11.735 16.4486 11.992 16.4486C12.2705 16.4486 12.4847 16.5399 12.6347 16.7224C12.7846 16.9041 12.8596 17.1127 12.8596 17.3483C12.8596 19.0621 13.4221 20.3795 14.5472 21.3006C15.6714 22.2217 17.0154 22.6823 18.5791 22.6823C18.7719 22.6823 18.9917 22.6664 19.2385 22.6347C19.4844 22.6022 19.7359 22.5752 19.993 22.5538C20.2286 22.5324 20.4321 22.591 20.6035 22.7299C20.7749 22.8695 20.8713 23.0572 20.8927 23.2928C20.9141 23.5285 20.8605 23.7212 20.732 23.8712C20.6035 24.0211 20.4428 24.1283 20.25 24.1925C19.9073 24.2996 19.586 24.3639 19.2861 24.3853C18.9862 24.4067 18.7505 24.4174 18.5791 24.4174Z" fill="#D1D1D6"/>
</svg>
